<?xml version="1.0" encoding="UTF-8"?>
<!DOCTYPE svg PUBLIC "-//W3C//DTD SVG 1.1//EN" "http://www.w3.org/Graphics/SVG/1.1/DTD/svg11.dtd">
<!-- Creator: CorelDRAW -->
<svg xmlns="http://www.w3.org/2000/svg" xml:space="preserve" width="6.82666in" height="6.82666in" style="shape-rendering:geometricPrecision; text-rendering:geometricPrecision; image-rendering:optimizeQuality; fill-rule:evenodd; clip-rule:evenodd"
viewBox="0 0 6.82666 6.82666"
 xmlns:xlink="http://www.w3.org/1999/xlink">
 <defs>
  <style type="text/css">
   <![CDATA[
    .fil0 {fill:none}
    .fil1 {fill:#212121;fill-rule:nonzero}
    .fil2 {fill:#66BB6A;fill-rule:nonzero}
   ]]>
  </style>
 </defs>
 <g id="Layer_x0020_1">
  <metadata id="CorelCorpID_0Corel-Layer"/>
  <g id="_503533680">
   <rect id="_503533896" class="fil0" width="6.82666" height="6.82666"/>
   <rect id="_503534016" class="fil0" x="0.853331" y="0.853331" width="5.12" height="5.12"/>
  </g>
  <path class="fil1" d="M3.42725 1.91352c0.414146,0 0.789102,0.167882 1.06052,0.439291 0.271409,0.271413 0.439291,0.64637 0.439291,1.06052 0,0.414146 -0.167882,0.789102 -0.439291,1.06052 -0.271413,0.271409 -0.64637,0.439291 -1.06052,0.439291 -0.414146,0 -0.789098,-0.167878 -1.06051,-0.439291 -0.271409,-0.271413 -0.439291,-0.64637 -0.439291,-1.06052 0,-0.414146 0.167882,-0.789102 0.439291,-1.06052 0.271413,-0.271413 0.646366,-0.439291 1.06051,-0.439291zm0.909681 0.590126c-0.232795,-0.232791 -0.554421,-0.376787 -0.909681,-0.376787 -0.35526,0 -0.676882,0.143992 -0.909677,0.376787 -0.232791,0.232795 -0.376787,0.554421 -0.376787,0.909681 0,0.35526 0.143996,0.676886 0.376787,0.909681 0.232795,0.232795 0.554417,0.376787 0.909677,0.376787 0.35526,0 0.676886,-0.143996 0.909681,-0.376787 0.232791,-0.232795 0.376787,-0.554421 0.376787,-0.909681 0,-0.35526 -0.143996,-0.676886 -0.376787,-0.909681z"/>
  <polygon class="fil1" points="4.82039,3.30666 5.97333,3.30666 5.97333,3.52 4.82039,3.52 "/>
  <polygon class="fil1" points="0.853331,3.30666 2.00627,3.30666 2.00627,3.52 0.853331,3.52 "/>
  <path class="fil2" d="M2.84059 4.04013l0.497768 -1.29571 0.18463 0 0.53035 1.29571 -0.195488 0 -0.151142 -0.392484 -0.541815 0 -0.142091 0.392484 -0.182213 0zm0.37378 -0.532161l0.439547 0 -0.135457 -0.358697c-0.0410236,-0.108906 -0.0717953,-0.1985 -0.0917087,-0.268795 -0.0165945,0.0832638 -0.0398228,0.165622 -0.0699921,0.247677l-0.14239 0.379815z"/>
 </g>
</svg>
